<?xml version="1.0" standalone="no"?><!DOCTYPE svg PUBLIC "-//W3C//DTD SVG 1.1//EN" "http://www.w3.org/Graphics/SVG/1.1/DTD/svg11.dtd"><svg t="1585718638730" class="icon" viewBox="0 0 1114 1024" version="1.1" xmlns="http://www.w3.org/2000/svg" p-id="8537" xmlns:xlink="http://www.w3.org/1999/xlink" width="217.578125" height="200"><defs><style type="text/css"></style></defs><path d="M993.886268 442.729412V963.764706a60.235294 60.235294 0 0 1-60.235294 60.235294h-231.755294a60.235294 60.235294 0 0 1-60.235294-60.235294v-241.664h-176.609882V963.764706a60.235294 60.235294 0 0 1-60.235295 60.235294H180.709798a60.235294 60.235294 0 0 1-60.235294-60.235294V445.44l-70.987295 59.512471a30.117647 30.117647 0 1 1-38.731294-46.140236l538.744471-451.764706a30.117647 30.117647 0 0 1 39.183059 0.421647l515.403294 451.764706a30.117647 30.117647 0 0 1-39.695059 45.296942L993.886268 442.729412z m-60.205176-52.766118L568.414268 69.812706 180.709798 394.872471V963.764706h224.105411v-241.664a60.235294 60.235294 0 0 1 60.235295-60.235294h176.609882a60.235294 60.235294 0 0 1 60.235294 60.235294V963.764706H933.650974V391.529412l0.030118-1.566118z" fill="#515151" p-id="8538"></path></svg>