<?xml version="1.0" standalone="no"?><!DOCTYPE svg PUBLIC "-//W3C//DTD SVG 1.1//EN" "http://www.w3.org/Graphics/SVG/1.1/DTD/svg11.dtd"><svg t="1585714970048" class="icon" viewBox="0 0 1024 1024" version="1.1" xmlns="http://www.w3.org/2000/svg" p-id="13206" xmlns:xlink="http://www.w3.org/1999/xlink" width="200" height="200"><defs><style type="text/css"></style></defs><path d="M129 979.2c-20.2 0-36.6-16.4-36.6-36.6V142.8c0-20.2 16.4-36.6 36.6-36.6h221V79.8c0-19.3 15.7-35 35-35s35 15.7 35 35v26.4h184.3V79.8c0-19.3 15.7-35 35-35s35 15.7 35 35v26.4H895c20.2 0 36.6 16.4 36.6 36.6v799.9c0 20.2-16.4 36.6-36.6 36.6H129z m36.6-73.2h692.7V179.4h-184v30.4c0 19.3-15.7 35-35 35s-35-15.7-35-35v-30.4H420v30.4c0 19.3-15.7 35-35 35s-35-15.7-35-35v-30.4H165.6V906z" p-id="13207" fill="#13227a"></path><path d="M322.9 427.1c-9.3 0-18.1-3.7-24.7-10.3-6.6-6.6-10.2-15.4-10.2-24.8 0.1-19.2 15.8-34.9 35-34.9l378.1 1.5c19.3 0.1 34.9 15.8 34.9 35.1-0.1 19.2-15.8 34.9-35 34.9l-378.1-1.5zM322.9 589.7c-9.3 0-18.1-3.7-24.7-10.3-6.6-6.6-10.2-15.4-10.2-24.8 0.1-19.2 15.8-34.9 35-34.9l378.1 1.5c9.3 0 18.1 3.7 24.7 10.3 6.6 6.6 10.2 15.4 10.2 24.8-0.1 19.2-15.8 34.9-35 34.9l-378.1-1.5zM322.7 752.3c-19.3-0.2-34.9-16-34.7-35.3 0.1-19.1 15.8-34.7 35-34.7l193 1.5c9.3 0.1 18.1 3.8 24.7 10.4 6.6 6.7 10.1 15.5 10.1 24.8-0.1 19.1-15.8 34.7-35 34.7l-193.1-1.4z" p-id="13208" fill="#13227a"></path></svg>