<?xml version="1.0" standalone="no"?><!DOCTYPE svg PUBLIC "-//W3C//DTD SVG 1.1//EN" "http://www.w3.org/Graphics/SVG/1.1/DTD/svg11.dtd"><svg t="1585716897809" class="icon" viewBox="0 0 1024 1024" version="1.1" xmlns="http://www.w3.org/2000/svg" p-id="7337" xmlns:xlink="http://www.w3.org/1999/xlink" width="200" height="200"><defs><style type="text/css"></style></defs><path d="M512 686.208A231.104 231.104 0 1 1 512 224a231.104 231.104 0 0 1 0 462.208z m0-64A167.104 167.104 0 1 0 512 288a167.104 167.104 0 0 0 0 334.208z" fill="#515151" p-id="7338"></path><path d="M873.984 849.472l-57.6 27.84A337.792 337.792 0 0 0 512 686.208a337.728 337.728 0 0 0-301.888 186.048l-57.152-28.8A401.728 401.728 0 0 1 512 622.208a401.728 401.728 0 0 1 361.984 227.2z" fill="#515151" p-id="7339"></path><path d="M512 960A448 448 0 1 0 512 64a448 448 0 0 0 0 896z m0 64A512 512 0 1 1 512 0a512 512 0 0 1 0 1024z" fill="#515151" p-id="7340"></path></svg>